<svg width="28" height="28" viewBox="0 0 28 28" fill="none" xmlns="http://www.w3.org/2000/svg">
<path d="M16.999 3.5C17.4408 3.5 17.7987 3.85807 17.7988 4.2998V5.0332H19.7002C22.0745 5.03364 23.9998 6.9586 24 9.33301V19.833C24 22.2076 22.0746 24.1324 19.7002 24.1328H8.0332C5.65838 24.1328 3.7334 22.2078 3.7334 19.833V9.33301C3.73357 6.95833 5.65849 5.0332 8.0332 5.0332H9.19922V4.2998C9.19932 3.85819 9.55743 3.50019 9.99902 3.5C10.4408 3.5 10.7987 3.85807 10.7988 4.2998V5.0332H16.1992V4.2998C16.1993 3.85819 16.5574 3.50019 16.999 3.5ZM5.33301 19.833C5.33301 21.3242 6.54203 22.5332 8.0332 22.5332H19.7002C21.191 22.5328 22.3994 21.3239 22.3994 19.833V12.833H5.33301V19.833ZM11.9404 18.3164C12.359 18.3164 12.6988 18.6558 12.6992 19.0742C12.6992 19.493 12.3592 19.833 11.9404 19.833H9.95801C9.53927 19.8329 9.19922 19.493 9.19922 19.0742C9.19964 18.6558 9.53953 18.3165 9.95801 18.3164H11.9404ZM17.7744 18.3164C18.1927 18.3167 18.5328 18.6559 18.5332 19.0742C18.5332 19.4929 18.193 19.8327 17.7744 19.833H15.792C15.3732 19.833 15.0332 19.493 15.0332 19.0742C15.0336 18.6558 15.3734 18.3164 15.792 18.3164H17.7744ZM11.9404 14.8164C12.359 14.8164 12.6988 15.1558 12.6992 15.5742C12.6992 15.993 12.3592 16.333 11.9404 16.333H9.95801C9.53927 16.3329 9.19922 15.993 9.19922 15.5742C9.19964 15.1558 9.53953 14.8165 9.95801 14.8164H11.9404ZM17.7744 14.8164C18.1927 14.8167 18.5328 15.1559 18.5332 15.5742C18.5332 15.9929 18.193 16.3327 17.7744 16.333H15.792C15.3732 16.333 15.0332 15.993 15.0332 15.5742C15.0336 15.1558 15.3734 14.8164 15.792 14.8164H17.7744ZM8.0332 6.63281C6.54214 6.63281 5.33318 7.84199 5.33301 9.33301V11.2334H22.3994V9.33301C22.3992 7.84226 21.1909 6.63325 19.7002 6.63281H17.7988V7.36621C17.7988 7.80804 17.4409 8.16699 16.999 8.16699C16.5574 8.1668 16.1992 7.80792 16.1992 7.36621V6.63281H10.7988V7.36621C10.7988 7.80804 10.4409 8.16699 9.99902 8.16699C9.55736 8.1668 9.19922 7.80792 9.19922 7.36621V6.63281H8.0332Z" fill="#4097FF"/>
</svg>
