<svg width="20" height="20" viewBox="0 0 20 20" fill="none" xmlns="http://www.w3.org/2000/svg">
<path d="M15.1968 3.52964C15.5482 3.17855 16.1178 3.17864 16.4693 3.52964C16.8207 3.88109 16.8206 4.4516 16.4693 4.80308L11.272 9.99937L16.4693 15.1966C16.8207 15.5481 16.8206 16.1176 16.4693 16.4691C16.1178 16.8206 15.5483 16.8206 15.1968 16.4691L9.99954 11.2718L4.80325 16.4691C4.45178 16.8206 3.88128 16.8206 3.52981 16.4691C3.17877 16.1176 3.17863 15.548 3.52981 15.1966L8.7261 9.99937L3.52981 4.80308C3.1784 4.4516 3.17836 3.8811 3.52981 3.52964C3.88127 3.17828 4.4518 3.17826 4.80325 3.52964L9.99954 8.72593L15.1968 3.52964Z" fill="black"/>
</svg>
